<mxfile host="65bd71144e">
    <diagram id="644lE831H37QxMnrg_A5" name="Datalake">
        <mxGraphModel dx="1170" dy="1236" grid="1" gridSize="10" guides="1" tooltips="1" connect="1" arrows="1" fold="1" page="0" pageScale="1" pageWidth="850" pageHeight="1100" math="0" shadow="0">
            <root>
                <mxCell id="0"/>
                <mxCell id="1" parent="0"/>
                <mxCell id="5" value="&lt;font style=&quot;font-size: 27px;&quot;&gt;Governance&lt;/font&gt;" style="rounded=0;whiteSpace=wrap;html=1;fontSize=27;fillColor=none;" parent="1" vertex="1">
                    <mxGeometry x="200" y="195" width="540" height="60" as="geometry"/>
                </mxCell>
                <mxCell id="7" value="Store" style="rounded=0;whiteSpace=wrap;html=1;fontSize=27;fillColor=none;" parent="1" vertex="1">
                    <mxGeometry x="200" y="370" width="540" height="60" as="geometry"/>
                </mxCell>
                <mxCell id="8" value="Ingest" style="rounded=0;whiteSpace=wrap;html=1;fontSize=27;fillColor=none;" parent="1" vertex="1">
                    <mxGeometry x="50" y="195" width="120" height="235" as="geometry"/>
                </mxCell>
                <mxCell id="33" style="edgeStyle=orthogonalEdgeStyle;html=1;fontSize=20;curved=1;entryX=0.25;entryY=1;entryDx=0;entryDy=0;" parent="1" source="9" target="8" edge="1">
                    <mxGeometry relative="1" as="geometry">
                        <mxPoint x="680" y="650" as="targetPoint"/>
                        <Array as="points">
                            <mxPoint x="925" y="600"/>
                            <mxPoint x="80" y="600"/>
                        </Array>
                    </mxGeometry>
                </mxCell>
                <mxCell id="9" value="APPLY" style="rounded=0;whiteSpace=wrap;html=1;fontSize=27;fillColor=none;align=center;verticalAlign=top;" parent="1" vertex="1">
                    <mxGeometry x="770" y="195" width="310" height="235" as="geometry"/>
                </mxCell>
                <mxCell id="12" value="Data Prep" style="text;html=1;align=center;verticalAlign=middle;resizable=0;points=[];autosize=1;strokeColor=none;fillColor=none;fontSize=20;" parent="1" vertex="1">
                    <mxGeometry x="240" y="297.5" width="110" height="40" as="geometry"/>
                </mxCell>
                <mxCell id="19" value="" style="shape=flexArrow;endArrow=classic;html=1;fontSize=27;" parent="1" edge="1">
                    <mxGeometry width="50" height="50" relative="1" as="geometry">
                        <mxPoint x="347" y="320" as="sourcePoint"/>
                        <mxPoint x="377" y="321" as="targetPoint"/>
                    </mxGeometry>
                </mxCell>
                <mxCell id="20" value="&lt;font style=&quot;font-size: 20px;&quot;&gt;Feature Extration&lt;/font&gt;" style="text;html=1;align=center;verticalAlign=middle;resizable=0;points=[];autosize=1;strokeColor=none;fillColor=none;fontSize=27;" parent="1" vertex="1">
                    <mxGeometry x="370" y="292.5" width="180" height="50" as="geometry"/>
                </mxCell>
                <mxCell id="22" value="" style="shape=flexArrow;endArrow=classic;html=1;fontSize=27;" parent="1" edge="1">
                    <mxGeometry width="50" height="50" relative="1" as="geometry">
                        <mxPoint x="347" y="320" as="sourcePoint"/>
                        <mxPoint x="377" y="320" as="targetPoint"/>
                    </mxGeometry>
                </mxCell>
                <mxCell id="23" value="" style="shape=flexArrow;endArrow=classic;html=1;fontSize=27;" parent="1" edge="1">
                    <mxGeometry width="50" height="50" relative="1" as="geometry">
                        <mxPoint x="210" y="320" as="sourcePoint"/>
                        <mxPoint x="240" y="320" as="targetPoint"/>
                    </mxGeometry>
                </mxCell>
                <mxCell id="25" value="" style="shape=flexArrow;endArrow=classic;html=1;fontSize=27;" parent="1" edge="1">
                    <mxGeometry width="50" height="50" relative="1" as="geometry">
                        <mxPoint x="540" y="320" as="sourcePoint"/>
                        <mxPoint x="570" y="320" as="targetPoint"/>
                    </mxGeometry>
                </mxCell>
                <mxCell id="26" value="&lt;font style=&quot;font-size: 20px;&quot;&gt;ML Model Train&lt;br&gt;Advanced Analytics&lt;br&gt;&lt;/font&gt;" style="text;html=1;align=center;verticalAlign=middle;resizable=0;points=[];autosize=1;strokeColor=none;fillColor=none;fontSize=27;" parent="1" vertex="1">
                    <mxGeometry x="570" y="277.5" width="200" height="80" as="geometry"/>
                </mxCell>
                <mxCell id="28" value="Dashboards&lt;br&gt;Applications&lt;br&gt;Automation" style="text;html=1;strokeColor=none;fillColor=none;align=left;verticalAlign=middle;whiteSpace=wrap;rounded=0;fontSize=20;" parent="1" vertex="1">
                    <mxGeometry x="870" y="307.5" width="60" height="30" as="geometry"/>
                </mxCell>
                <mxCell id="40" value="" style="group" parent="1" vertex="1" connectable="0">
                    <mxGeometry x="600" y="-20" width="290" height="160" as="geometry"/>
                </mxCell>
                <mxCell id="34" value="" style="edgeStyle=segmentEdgeStyle;endArrow=classic;html=1;curved=0;rounded=0;endSize=8;startSize=8;fontSize=20;" parent="40" edge="1">
                    <mxGeometry width="50" height="50" relative="1" as="geometry">
                        <mxPoint x="-10" y="160" as="sourcePoint"/>
                        <mxPoint x="290" y="-30" as="targetPoint"/>
                        <Array as="points">
                            <mxPoint x="70" y="160"/>
                            <mxPoint x="70" y="110"/>
                            <mxPoint x="160" y="110"/>
                            <mxPoint x="160" y="70"/>
                            <mxPoint x="230" y="70"/>
                            <mxPoint x="230" y="30"/>
                            <mxPoint x="290" y="30"/>
                        </Array>
                    </mxGeometry>
                </mxCell>
                <mxCell id="35" value="Collect" style="text;html=1;strokeColor=none;fillColor=none;align=center;verticalAlign=middle;whiteSpace=wrap;rounded=0;fontSize=20;" parent="40" vertex="1">
                    <mxGeometry y="130" width="60" height="30" as="geometry"/>
                </mxCell>
                <mxCell id="36" value="Organize" style="text;html=1;strokeColor=none;fillColor=none;align=center;verticalAlign=middle;whiteSpace=wrap;rounded=0;fontSize=20;" parent="40" vertex="1">
                    <mxGeometry x="80" y="80" width="60" height="30" as="geometry"/>
                </mxCell>
                <mxCell id="38" value="Analyze" style="text;html=1;strokeColor=none;fillColor=none;align=center;verticalAlign=middle;whiteSpace=wrap;rounded=0;fontSize=20;" parent="40" vertex="1">
                    <mxGeometry x="160" y="40" width="60" height="30" as="geometry"/>
                </mxCell>
                <mxCell id="39" value="Infuse" style="text;html=1;strokeColor=none;fillColor=none;align=center;verticalAlign=middle;whiteSpace=wrap;rounded=0;fontSize=20;" parent="40" vertex="1">
                    <mxGeometry x="230" width="60" height="30" as="geometry"/>
                </mxCell>
                <mxCell id="42" value="AI Latter" style="text;html=1;align=center;verticalAlign=middle;resizable=0;points=[];autosize=1;strokeColor=none;fillColor=none;fontSize=20;" parent="1" vertex="1">
                    <mxGeometry x="580" y="-70" width="100" height="40" as="geometry"/>
                </mxCell>
            </root>
        </mxGraphModel>
    </diagram>
    <diagram id="qPgwdVoarpG9Dsswysk0" name="Datalake 2">
        <mxGraphModel dx="1970" dy="1236" grid="1" gridSize="10" guides="1" tooltips="1" connect="1" arrows="1" fold="1" page="0" pageScale="1" pageWidth="850" pageHeight="1100" math="0" shadow="0">
            <root>
                <mxCell id="0"/>
                <mxCell id="1" parent="0"/>
                <mxCell id="Njrekzfvi7IKHaqC7ebu-1" value="" style="rounded=0;whiteSpace=wrap;html=1;fontSize=20;fillColor=none;" parent="1" vertex="1">
                    <mxGeometry x="-50" y="160" width="540" height="130" as="geometry"/>
                </mxCell>
                <mxCell id="Njrekzfvi7IKHaqC7ebu-3" value="" style="strokeWidth=2;html=1;shape=mxgraph.flowchart.database;whiteSpace=wrap;fontSize=20;fillColor=none;" parent="1" vertex="1">
                    <mxGeometry x="-310" y="-20" width="60" height="60" as="geometry"/>
                </mxCell>
                <mxCell id="Njrekzfvi7IKHaqC7ebu-4" value="" style="strokeWidth=2;html=1;shape=mxgraph.flowchart.database;whiteSpace=wrap;fontSize=20;fillColor=default;" parent="1" vertex="1">
                    <mxGeometry x="-290" y="-10" width="60" height="60" as="geometry"/>
                </mxCell>
                <mxCell id="Njrekzfvi7IKHaqC7ebu-6" style="edgeStyle=orthogonalEdgeStyle;curved=1;html=1;entryX=0;entryY=0.5;entryDx=0;entryDy=0;fontSize=20;" parent="1" source="Njrekzfvi7IKHaqC7ebu-5" target="Njrekzfvi7IKHaqC7ebu-1" edge="1">
                    <mxGeometry relative="1" as="geometry"/>
                </mxCell>
                <mxCell id="Njrekzfvi7IKHaqC7ebu-5" value="&lt;font style=&quot;font-size: 12px;&quot;&gt;DBs&lt;/font&gt;" style="strokeWidth=2;html=1;shape=mxgraph.flowchart.database;whiteSpace=wrap;fontSize=20;fillColor=default;" parent="1" vertex="1">
                    <mxGeometry x="-270" width="60" height="60" as="geometry"/>
                </mxCell>
                <mxCell id="Njrekzfvi7IKHaqC7ebu-8" value="" style="rounded=0;whiteSpace=wrap;html=1;fontSize=20;fillColor=default;strokeWidth=2;" parent="1" vertex="1">
                    <mxGeometry x="-400" y="110" width="90" height="40" as="geometry"/>
                </mxCell>
                <mxCell id="Njrekzfvi7IKHaqC7ebu-9" value="" style="rounded=0;whiteSpace=wrap;html=1;fontSize=20;fillColor=default;strokeWidth=2;" parent="1" vertex="1">
                    <mxGeometry x="-390" y="120" width="90" height="40" as="geometry"/>
                </mxCell>
                <mxCell id="Njrekzfvi7IKHaqC7ebu-10" value="" style="rounded=0;whiteSpace=wrap;html=1;fontSize=20;fillColor=default;strokeWidth=2;" parent="1" vertex="1">
                    <mxGeometry x="-380" y="130" width="90" height="40" as="geometry"/>
                </mxCell>
                <mxCell id="Njrekzfvi7IKHaqC7ebu-12" style="edgeStyle=orthogonalEdgeStyle;curved=1;html=1;entryX=0;entryY=0.5;entryDx=0;entryDy=0;fontSize=20;" parent="1" source="Njrekzfvi7IKHaqC7ebu-11" target="Njrekzfvi7IKHaqC7ebu-1" edge="1">
                    <mxGeometry relative="1" as="geometry"/>
                </mxCell>
                <mxCell id="Njrekzfvi7IKHaqC7ebu-11" value="&lt;font style=&quot;font-size: 12px;&quot;&gt;Devices&lt;/font&gt;" style="rounded=0;whiteSpace=wrap;html=1;fontSize=12;fillColor=default;strokeWidth=2;" parent="1" vertex="1">
                    <mxGeometry x="-370" y="140" width="90" height="40" as="geometry"/>
                </mxCell>
                <mxCell id="Njrekzfvi7IKHaqC7ebu-17" value="" style="rounded=0;whiteSpace=wrap;html=1;fontSize=20;fillColor=default;strokeWidth=2;" parent="1" vertex="1">
                    <mxGeometry x="-390" y="230" width="90" height="40" as="geometry"/>
                </mxCell>
                <mxCell id="Njrekzfvi7IKHaqC7ebu-18" value="" style="rounded=0;whiteSpace=wrap;html=1;fontSize=20;fillColor=default;strokeWidth=2;" parent="1" vertex="1">
                    <mxGeometry x="-380" y="240" width="90" height="40" as="geometry"/>
                </mxCell>
                <mxCell id="Njrekzfvi7IKHaqC7ebu-19" value="" style="rounded=0;whiteSpace=wrap;html=1;fontSize=20;fillColor=default;strokeWidth=2;" parent="1" vertex="1">
                    <mxGeometry x="-370" y="250" width="90" height="40" as="geometry"/>
                </mxCell>
                <mxCell id="Njrekzfvi7IKHaqC7ebu-21" style="edgeStyle=orthogonalEdgeStyle;curved=1;html=1;fontSize=12;" parent="1" source="Njrekzfvi7IKHaqC7ebu-20" target="Njrekzfvi7IKHaqC7ebu-1" edge="1">
                    <mxGeometry relative="1" as="geometry"/>
                </mxCell>
                <mxCell id="Njrekzfvi7IKHaqC7ebu-20" value="&lt;font style=&quot;font-size: 12px;&quot;&gt;Apps&lt;/font&gt;" style="rounded=0;whiteSpace=wrap;html=1;fontSize=12;fillColor=default;strokeWidth=2;" parent="1" vertex="1">
                    <mxGeometry x="-360" y="260" width="90" height="40" as="geometry"/>
                </mxCell>
                <mxCell id="Njrekzfvi7IKHaqC7ebu-25" style="edgeStyle=orthogonalEdgeStyle;curved=1;html=1;entryX=0;entryY=0.5;entryDx=0;entryDy=0;fontSize=12;" parent="1" source="Njrekzfvi7IKHaqC7ebu-24" target="Njrekzfvi7IKHaqC7ebu-1" edge="1">
                    <mxGeometry relative="1" as="geometry"/>
                </mxCell>
                <mxCell id="Njrekzfvi7IKHaqC7ebu-24" value="&lt;font style=&quot;font-size: 12px;&quot;&gt;Hadoop&lt;/font&gt;" style="strokeWidth=2;html=1;shape=mxgraph.flowchart.database;whiteSpace=wrap;fontSize=20;fillColor=default;" parent="1" vertex="1">
                    <mxGeometry x="-340" y="360" width="90" height="80" as="geometry"/>
                </mxCell>
                <mxCell id="zeaJBSy3ertb9yFsWyIl-1" value="" style="strokeWidth=2;html=1;shape=mxgraph.flowchart.database;whiteSpace=wrap;fontSize=20;fillColor=none;" vertex="1" parent="1">
                    <mxGeometry x="-310" y="-20" width="60" height="60" as="geometry"/>
                </mxCell>
                <mxCell id="zeaJBSy3ertb9yFsWyIl-2" value="" style="strokeWidth=2;html=1;shape=mxgraph.flowchart.database;whiteSpace=wrap;fontSize=20;fillColor=default;" vertex="1" parent="1">
                    <mxGeometry x="-290" y="-10" width="60" height="60" as="geometry"/>
                </mxCell>
                <mxCell id="zeaJBSy3ertb9yFsWyIl-3" value="DBs" style="strokeWidth=2;html=1;shape=mxgraph.flowchart.database;whiteSpace=wrap;fontSize=12;fillColor=default;" vertex="1" parent="1">
                    <mxGeometry x="-270" width="60" height="60" as="geometry"/>
                </mxCell>
                <mxCell id="zeaJBSy3ertb9yFsWyIl-4" value="" style="rounded=0;whiteSpace=wrap;html=1;fontSize=20;fillColor=none;" vertex="1" parent="1">
                    <mxGeometry x="-50" y="-35" width="540" height="130" as="geometry"/>
                </mxCell>
                <mxCell id="zeaJBSy3ertb9yFsWyIl-5" value="Object&lt;br&gt;Storage" style="strokeWidth=2;html=1;shape=mxgraph.flowchart.database;whiteSpace=wrap;fontSize=12;fillColor=none;verticalAlign=bottom;" vertex="1" parent="1">
                    <mxGeometry x="10" y="195" width="60" height="60" as="geometry"/>
                </mxCell>
                <mxCell id="zeaJBSy3ertb9yFsWyIl-6" value="Index" style="strokeWidth=2;html=1;shape=mxgraph.flowchart.database;whiteSpace=wrap;fontSize=12;fillColor=none;verticalAlign=middle;" vertex="1" parent="1">
                    <mxGeometry x="190" y="195" width="60" height="60" as="geometry"/>
                </mxCell>
                <mxCell id="zeaJBSy3ertb9yFsWyIl-7" value="Catalog" style="strokeWidth=2;html=1;shape=mxgraph.flowchart.database;whiteSpace=wrap;fontSize=12;fillColor=none;verticalAlign=middle;" vertex="1" parent="1">
                    <mxGeometry x="380" y="195" width="60" height="60" as="geometry"/>
                </mxCell>
                <mxCell id="zeaJBSy3ertb9yFsWyIl-8" value="Extract" style="text;html=1;align=center;verticalAlign=middle;resizable=0;points=[];autosize=1;strokeColor=none;fillColor=none;fontSize=12;" vertex="1" parent="1">
                    <mxGeometry x="-15" y="120" width="60" height="30" as="geometry"/>
                </mxCell>
                <mxCell id="zeaJBSy3ertb9yFsWyIl-9" value="Transform" style="text;html=1;align=center;verticalAlign=middle;resizable=0;points=[];autosize=1;strokeColor=none;fillColor=none;fontSize=12;" vertex="1" parent="1">
                    <mxGeometry x="75" y="120" width="80" height="30" as="geometry"/>
                </mxCell>
                <mxCell id="zeaJBSy3ertb9yFsWyIl-10" value="Transform" style="text;html=1;align=center;verticalAlign=middle;resizable=0;points=[];autosize=1;strokeColor=none;fillColor=none;fontSize=12;" vertex="1" parent="1">
                    <mxGeometry x="175" y="120" width="80" height="30" as="geometry"/>
                </mxCell>
                <mxCell id="zeaJBSy3ertb9yFsWyIl-11" value="Index" style="text;html=1;align=center;verticalAlign=middle;resizable=0;points=[];autosize=1;strokeColor=none;fillColor=none;fontSize=12;" vertex="1" parent="1">
                    <mxGeometry x="285" y="120" width="50" height="30" as="geometry"/>
                </mxCell>
                <mxCell id="zeaJBSy3ertb9yFsWyIl-13" value="&lt;span style=&quot;color: rgb(0, 0, 0); font-family: Helvetica; font-size: 12px; font-style: normal; font-variant-ligatures: normal; font-variant-caps: normal; font-weight: 400; letter-spacing: normal; orphans: 2; text-align: center; text-indent: 0px; text-transform: none; widows: 2; word-spacing: 0px; -webkit-text-stroke-width: 0px; background-color: rgb(255, 255, 255); text-decoration-thickness: initial; text-decoration-style: initial; text-decoration-color: initial; float: none; display: inline !important;&quot;&gt;Catalog&lt;/span&gt;" style="text;whiteSpace=wrap;html=1;fontSize=12;" vertex="1" parent="1">
                    <mxGeometry x="365" y="120" width="70" height="40" as="geometry"/>
                </mxCell>
                <mxCell id="zeaJBSy3ertb9yFsWyIl-14" value="Function as Service" style="text;html=1;align=center;verticalAlign=middle;resizable=0;points=[];autosize=1;strokeColor=none;fillColor=none;fontSize=20;" vertex="1" parent="1">
                    <mxGeometry x="-40" y="10" width="200" height="40" as="geometry"/>
                </mxCell>
                <mxCell id="zeaJBSy3ertb9yFsWyIl-15" value="SQL as Service" style="text;html=1;align=center;verticalAlign=middle;resizable=0;points=[];autosize=1;strokeColor=none;fillColor=none;fontSize=20;" vertex="1" parent="1">
                    <mxGeometry x="310" y="10" width="160" height="40" as="geometry"/>
                </mxCell>
                <mxCell id="zeaJBSy3ertb9yFsWyIl-26" style="edgeStyle=none;html=1;entryX=0.5;entryY=0;entryDx=0;entryDy=0;entryPerimeter=0;fontSize=12;" edge="1" parent="1" source="zeaJBSy3ertb9yFsWyIl-16" target="zeaJBSy3ertb9yFsWyIl-21">
                    <mxGeometry relative="1" as="geometry"/>
                </mxCell>
                <mxCell id="zeaJBSy3ertb9yFsWyIl-16" value="Reports" style="rounded=1;whiteSpace=wrap;html=1;strokeWidth=1;fontSize=12;" vertex="1" parent="1">
                    <mxGeometry x="490" y="-170" width="120" height="60" as="geometry"/>
                </mxCell>
                <mxCell id="zeaJBSy3ertb9yFsWyIl-24" style="edgeStyle=none;html=1;entryX=0.5;entryY=0;entryDx=0;entryDy=0;entryPerimeter=0;fontSize=12;" edge="1" parent="1" source="zeaJBSy3ertb9yFsWyIl-17" target="zeaJBSy3ertb9yFsWyIl-21">
                    <mxGeometry relative="1" as="geometry"/>
                </mxCell>
                <mxCell id="zeaJBSy3ertb9yFsWyIl-17" value="Dashboards" style="rounded=1;whiteSpace=wrap;html=1;strokeWidth=1;fontSize=12;" vertex="1" parent="1">
                    <mxGeometry x="640" y="-170" width="120" height="60" as="geometry"/>
                </mxCell>
                <mxCell id="zeaJBSy3ertb9yFsWyIl-22" value="ETL" style="edgeStyle=none;html=1;entryX=1;entryY=0.5;entryDx=0;entryDy=0;fontSize=12;" edge="1" parent="1" source="zeaJBSy3ertb9yFsWyIl-21" target="Njrekzfvi7IKHaqC7ebu-1">
                    <mxGeometry x="0.0476" y="25" relative="1" as="geometry">
                        <mxPoint as="offset"/>
                    </mxGeometry>
                </mxCell>
                <mxCell id="zeaJBSy3ertb9yFsWyIl-21" value="DWH" style="shape=cylinder3;whiteSpace=wrap;html=1;boundedLbl=1;backgroundOutline=1;size=15;strokeWidth=1;fontSize=12;" vertex="1" parent="1">
                    <mxGeometry x="575" y="165" width="100" height="120" as="geometry"/>
                </mxCell>
                <mxCell id="zeaJBSy3ertb9yFsWyIl-28" style="edgeStyle=none;html=1;entryX=0.898;entryY=1.023;entryDx=0;entryDy=0;entryPerimeter=0;fontSize=12;" edge="1" parent="1" source="zeaJBSy3ertb9yFsWyIl-27" target="Njrekzfvi7IKHaqC7ebu-1">
                    <mxGeometry relative="1" as="geometry"/>
                </mxCell>
                <mxCell id="zeaJBSy3ertb9yFsWyIl-27" value="Data Science&lt;br&gt;tools" style="rounded=1;whiteSpace=wrap;html=1;strokeWidth=1;fontSize=12;" vertex="1" parent="1">
                    <mxGeometry x="510" y="410" width="120" height="60" as="geometry"/>
                </mxCell>
                <mxCell id="zeaJBSy3ertb9yFsWyIl-29" value="Process" style="text;html=1;align=center;verticalAlign=middle;resizable=0;points=[];autosize=1;strokeColor=none;fillColor=none;fontSize=20;" vertex="1" parent="1">
                    <mxGeometry x="150" y="-35" width="100" height="40" as="geometry"/>
                </mxCell>
                <mxCell id="zeaJBSy3ertb9yFsWyIl-30" value="Governance" style="text;html=1;align=center;verticalAlign=middle;resizable=0;points=[];autosize=1;strokeColor=none;fillColor=none;fontSize=20;" vertex="1" parent="1">
                    <mxGeometry x="140" y="370" width="130" height="40" as="geometry"/>
                </mxCell>
                <mxCell id="SvrHDqVmu41miAGvXXl_-1" value="Track Lineage" style="text;html=1;align=center;verticalAlign=middle;resizable=0;points=[];autosize=1;strokeColor=none;fillColor=none;fontSize=20;" vertex="1" parent="1">
                    <mxGeometry x="-20" y="310" width="150" height="40" as="geometry"/>
                </mxCell>
                <mxCell id="SvrHDqVmu41miAGvXXl_-2" value="Enforce Policies" style="text;html=1;align=center;verticalAlign=middle;resizable=0;points=[];autosize=1;strokeColor=none;fillColor=none;fontSize=20;" vertex="1" parent="1">
                    <mxGeometry x="250" y="310" width="170" height="40" as="geometry"/>
                </mxCell>
            </root>
        </mxGraphModel>
    </diagram>
    <diagram id="eRBqNDmRBt_eo0FwDvjJ" name="Batch">
        <mxGraphModel dx="1170" dy="836" grid="1" gridSize="10" guides="1" tooltips="1" connect="1" arrows="1" fold="1" page="1" pageScale="1" pageWidth="850" pageHeight="1100" math="0" shadow="0">
            <root>
                <mxCell id="0"/>
                <mxCell id="1" parent="0"/>
                <mxCell id="u1QlFsICTcY6KtCTY5p8-5" style="edgeStyle=none;html=1;entryX=0;entryY=0.5;entryDx=0;entryDy=0;entryPerimeter=0;fontSize=12;" edge="1" parent="1" source="u1QlFsICTcY6KtCTY5p8-1" target="u1QlFsICTcY6KtCTY5p8-4">
                    <mxGeometry relative="1" as="geometry"/>
                </mxCell>
                <mxCell id="u1QlFsICTcY6KtCTY5p8-1" value="API" style="sketch=0;outlineConnect=0;fontColor=#232F3E;gradientColor=none;fillColor=#232F3D;strokeColor=none;dashed=0;verticalLabelPosition=bottom;verticalAlign=top;align=center;html=1;fontSize=12;fontStyle=0;aspect=fixed;pointerEvents=1;shape=mxgraph.aws4.gear;strokeWidth=1;" vertex="1" parent="1">
                    <mxGeometry x="70" y="70" width="78" height="78" as="geometry"/>
                </mxCell>
                <mxCell id="u1QlFsICTcY6KtCTY5p8-6" style="edgeStyle=none;html=1;fontSize=12;" edge="1" parent="1" source="u1QlFsICTcY6KtCTY5p8-2" target="u1QlFsICTcY6KtCTY5p8-4">
                    <mxGeometry relative="1" as="geometry"/>
                </mxCell>
                <mxCell id="u1QlFsICTcY6KtCTY5p8-2" value="DB" style="shape=cylinder3;whiteSpace=wrap;html=1;boundedLbl=1;backgroundOutline=1;size=15;strokeWidth=1;fontSize=12;" vertex="1" parent="1">
                    <mxGeometry x="88" y="210" width="60" height="80" as="geometry"/>
                </mxCell>
                <mxCell id="u1QlFsICTcY6KtCTY5p8-7" style="edgeStyle=none;html=1;entryX=0;entryY=0.5;entryDx=0;entryDy=0;entryPerimeter=0;fontSize=12;" edge="1" parent="1" source="u1QlFsICTcY6KtCTY5p8-3" target="u1QlFsICTcY6KtCTY5p8-4">
                    <mxGeometry relative="1" as="geometry"/>
                </mxCell>
                <mxCell id="u1QlFsICTcY6KtCTY5p8-3" value="Files" style="whiteSpace=wrap;html=1;shape=mxgraph.basic.document;strokeWidth=1;fontSize=12;" vertex="1" parent="1">
                    <mxGeometry x="70" y="330" width="100" height="100" as="geometry"/>
                </mxCell>
                <mxCell id="u1QlFsICTcY6KtCTY5p8-10" style="edgeStyle=none;html=1;fontSize=12;" edge="1" parent="1" source="u1QlFsICTcY6KtCTY5p8-4" target="u1QlFsICTcY6KtCTY5p8-9">
                    <mxGeometry relative="1" as="geometry"/>
                </mxCell>
                <mxCell id="u1QlFsICTcY6KtCTY5p8-4" value="" style="sketch=0;points=[[0,0,0],[0.25,0,0],[0.5,0,0],[0.75,0,0],[1,0,0],[0,1,0],[0.25,1,0],[0.5,1,0],[0.75,1,0],[1,1,0],[0,0.25,0],[0,0.5,0],[0,0.75,0],[1,0.25,0],[1,0.5,0],[1,0.75,0]];outlineConnect=0;fontColor=#232F3E;gradientColor=#945DF2;gradientDirection=north;fillColor=#5A30B5;strokeColor=#ffffff;dashed=0;verticalLabelPosition=bottom;verticalAlign=top;align=center;html=1;fontSize=12;fontStyle=0;aspect=fixed;shape=mxgraph.aws4.resourceIcon;resIcon=mxgraph.aws4.data_pipeline;strokeWidth=1;" vertex="1" parent="1">
                    <mxGeometry x="290" y="180" width="78" height="78" as="geometry"/>
                </mxCell>
                <mxCell id="u1QlFsICTcY6KtCTY5p8-13" style="edgeStyle=none;html=1;entryX=-0.1;entryY=0.47;entryDx=0;entryDy=0;entryPerimeter=0;fontSize=12;" edge="1" parent="1" source="u1QlFsICTcY6KtCTY5p8-9" target="u1QlFsICTcY6KtCTY5p8-12">
                    <mxGeometry relative="1" as="geometry"/>
                </mxCell>
                <mxCell id="u1QlFsICTcY6KtCTY5p8-9" value="" style="sketch=0;outlineConnect=0;fontColor=#232F3E;gradientColor=none;fillColor=#4D27AA;strokeColor=none;dashed=0;verticalLabelPosition=bottom;verticalAlign=top;align=center;html=1;fontSize=12;fontStyle=0;aspect=fixed;pointerEvents=1;shape=mxgraph.aws4.data_lake_resource_icon;strokeWidth=1;" vertex="1" parent="1">
                    <mxGeometry x="440" y="180" width="78" height="78" as="geometry"/>
                </mxCell>
                <mxCell id="u1QlFsICTcY6KtCTY5p8-12" value="" style="html=1;verticalLabelPosition=bottom;align=center;labelBackgroundColor=#ffffff;verticalAlign=top;strokeWidth=2;strokeColor=#0080F0;shadow=0;dashed=0;shape=mxgraph.ios7.icons.data;fontSize=12;" vertex="1" parent="1">
                    <mxGeometry x="610" y="184.45" width="50" height="73.55" as="geometry"/>
                </mxCell>
            </root>
        </mxGraphModel>
    </diagram>
    <diagram name="Lambda" id="3k7iwr_dHrxVZEzBg08q">
        <mxGraphModel dx="1170" dy="836" grid="1" gridSize="10" guides="1" tooltips="1" connect="1" arrows="1" fold="1" page="0" pageScale="1" pageWidth="850" pageHeight="1100" math="0" shadow="0">
            <root>
                <mxCell id="IK2AL_ty2n-udzm7h28u-0"/>
                <mxCell id="IK2AL_ty2n-udzm7h28u-1" parent="IK2AL_ty2n-udzm7h28u-0"/>
                <mxCell id="FBAVO_oNppfQJv2nhuRM-3" style="edgeStyle=none;html=1;fontSize=12;" edge="1" parent="IK2AL_ty2n-udzm7h28u-1" source="IK2AL_ty2n-udzm7h28u-3" target="FBAVO_oNppfQJv2nhuRM-2">
                    <mxGeometry relative="1" as="geometry"/>
                </mxCell>
                <mxCell id="IK2AL_ty2n-udzm7h28u-3" value="API" style="sketch=0;outlineConnect=0;fontColor=#232F3E;gradientColor=none;fillColor=#232F3D;strokeColor=none;dashed=0;verticalLabelPosition=bottom;verticalAlign=top;align=center;html=1;fontSize=12;fontStyle=0;aspect=fixed;pointerEvents=1;shape=mxgraph.aws4.gear;strokeWidth=1;" vertex="1" parent="IK2AL_ty2n-udzm7h28u-1">
                    <mxGeometry x="70" y="140" width="78" height="78" as="geometry"/>
                </mxCell>
                <mxCell id="FBAVO_oNppfQJv2nhuRM-8" style="edgeStyle=none;html=1;fontSize=12;" edge="1" parent="IK2AL_ty2n-udzm7h28u-1" source="IK2AL_ty2n-udzm7h28u-7">
                    <mxGeometry relative="1" as="geometry">
                        <mxPoint x="290" y="310" as="targetPoint"/>
                    </mxGeometry>
                </mxCell>
                <mxCell id="IK2AL_ty2n-udzm7h28u-7" value="Files" style="whiteSpace=wrap;html=1;shape=mxgraph.basic.document;strokeWidth=1;fontSize=12;" vertex="1" parent="IK2AL_ty2n-udzm7h28u-1">
                    <mxGeometry x="70" y="410" width="100" height="100" as="geometry"/>
                </mxCell>
                <mxCell id="IK2AL_ty2n-udzm7h28u-8" style="edgeStyle=none;html=1;fontSize=12;" edge="1" parent="IK2AL_ty2n-udzm7h28u-1" source="IK2AL_ty2n-udzm7h28u-9" target="IK2AL_ty2n-udzm7h28u-11">
                    <mxGeometry relative="1" as="geometry"/>
                </mxCell>
                <mxCell id="IK2AL_ty2n-udzm7h28u-9" value="" style="sketch=0;points=[[0,0,0],[0.25,0,0],[0.5,0,0],[0.75,0,0],[1,0,0],[0,1,0],[0.25,1,0],[0.5,1,0],[0.75,1,0],[1,1,0],[0,0.25,0],[0,0.5,0],[0,0.75,0],[1,0.25,0],[1,0.5,0],[1,0.75,0]];outlineConnect=0;fontColor=#232F3E;gradientColor=#945DF2;gradientDirection=north;fillColor=#5A30B5;strokeColor=#ffffff;dashed=0;verticalLabelPosition=bottom;verticalAlign=top;align=center;html=1;fontSize=12;fontStyle=0;aspect=fixed;shape=mxgraph.aws4.resourceIcon;resIcon=mxgraph.aws4.data_pipeline;strokeWidth=1;" vertex="1" parent="IK2AL_ty2n-udzm7h28u-1">
                    <mxGeometry x="290" y="260" width="78" height="78" as="geometry"/>
                </mxCell>
                <mxCell id="IK2AL_ty2n-udzm7h28u-10" style="edgeStyle=none;html=1;entryX=-0.1;entryY=0.47;entryDx=0;entryDy=0;entryPerimeter=0;fontSize=12;" edge="1" parent="IK2AL_ty2n-udzm7h28u-1" source="IK2AL_ty2n-udzm7h28u-11" target="IK2AL_ty2n-udzm7h28u-12">
                    <mxGeometry relative="1" as="geometry"/>
                </mxCell>
                <mxCell id="IK2AL_ty2n-udzm7h28u-11" value="" style="sketch=0;outlineConnect=0;fontColor=#232F3E;gradientColor=none;fillColor=#4D27AA;strokeColor=none;dashed=0;verticalLabelPosition=bottom;verticalAlign=top;align=center;html=1;fontSize=12;fontStyle=0;aspect=fixed;pointerEvents=1;shape=mxgraph.aws4.data_lake_resource_icon;strokeWidth=1;" vertex="1" parent="IK2AL_ty2n-udzm7h28u-1">
                    <mxGeometry x="440" y="260" width="78" height="78" as="geometry"/>
                </mxCell>
                <mxCell id="IK2AL_ty2n-udzm7h28u-12" value="" style="html=1;verticalLabelPosition=bottom;align=center;labelBackgroundColor=#ffffff;verticalAlign=top;strokeWidth=2;strokeColor=#0080F0;shadow=0;dashed=0;shape=mxgraph.ios7.icons.data;fontSize=12;" vertex="1" parent="IK2AL_ty2n-udzm7h28u-1">
                    <mxGeometry x="610" y="264.45" width="50" height="73.55" as="geometry"/>
                </mxCell>
                <mxCell id="FBAVO_oNppfQJv2nhuRM-7" style="edgeStyle=none;html=1;fontSize=12;" edge="1" parent="IK2AL_ty2n-udzm7h28u-1" source="FBAVO_oNppfQJv2nhuRM-2" target="IK2AL_ty2n-udzm7h28u-11">
                    <mxGeometry relative="1" as="geometry"/>
                </mxCell>
                <mxCell id="FBAVO_oNppfQJv2nhuRM-2" value="" style="sketch=0;points=[[0,0,0],[0.25,0,0],[0.5,0,0],[0.75,0,0],[1,0,0],[0,1,0],[0.25,1,0],[0.5,1,0],[0.75,1,0],[1,1,0],[0,0.25,0],[0,0.5,0],[0,0.75,0],[1,0.25,0],[1,0.5,0],[1,0.75,0]];outlineConnect=0;fontColor=#232F3E;gradientColor=#945DF2;gradientDirection=north;fillColor=#5A30B5;strokeColor=#ffffff;dashed=0;verticalLabelPosition=bottom;verticalAlign=top;align=center;html=1;fontSize=12;fontStyle=0;aspect=fixed;shape=mxgraph.aws4.resourceIcon;resIcon=mxgraph.aws4.kinesis_data_streams;strokeWidth=1;" vertex="1" parent="IK2AL_ty2n-udzm7h28u-1">
                    <mxGeometry x="280" y="140" width="78" height="78" as="geometry"/>
                </mxCell>
                <mxCell id="FBAVO_oNppfQJv2nhuRM-6" style="edgeStyle=none;html=1;fontSize=12;" edge="1" parent="IK2AL_ty2n-udzm7h28u-1" source="FBAVO_oNppfQJv2nhuRM-5" target="IK2AL_ty2n-udzm7h28u-9">
                    <mxGeometry relative="1" as="geometry"/>
                </mxCell>
                <mxCell id="FBAVO_oNppfQJv2nhuRM-5" value="DB" style="shape=cylinder3;whiteSpace=wrap;html=1;boundedLbl=1;backgroundOutline=1;size=15;strokeWidth=1;fontSize=12;" vertex="1" parent="IK2AL_ty2n-udzm7h28u-1">
                    <mxGeometry x="79" y="300" width="60" height="80" as="geometry"/>
                </mxCell>
            </root>
        </mxGraphModel>
    </diagram>
    <diagram id="t0qToSfhJ9Ujg-LUipmK" name="Kappa">
        <mxGraphModel dx="1170" dy="836" grid="1" gridSize="10" guides="1" tooltips="1" connect="1" arrows="1" fold="1" page="0" pageScale="1" pageWidth="850" pageHeight="1100" math="0" shadow="0">
            <root>
                <mxCell id="0"/>
                <mxCell id="1" parent="0"/>
                <mxCell id="8hI16IPhnx6V41X8fl6s-1" style="edgeStyle=none;html=1;fontSize=12;entryX=0;entryY=0.5;entryDx=0;entryDy=0;entryPerimeter=0;" edge="1" parent="1" source="8hI16IPhnx6V41X8fl6s-2" target="8hI16IPhnx6V41X8fl6s-11">
                    <mxGeometry relative="1" as="geometry"/>
                </mxCell>
                <mxCell id="8hI16IPhnx6V41X8fl6s-2" value="API" style="sketch=0;outlineConnect=0;fontColor=#232F3E;gradientColor=none;fillColor=#232F3D;strokeColor=none;dashed=0;verticalLabelPosition=bottom;verticalAlign=top;align=center;html=1;fontSize=12;fontStyle=0;aspect=fixed;pointerEvents=1;shape=mxgraph.aws4.gear;strokeWidth=1;" vertex="1" parent="1">
                    <mxGeometry x="70" y="140" width="78" height="78" as="geometry"/>
                </mxCell>
                <mxCell id="8hI16IPhnx6V41X8fl6s-15" style="edgeStyle=none;html=1;fontSize=12;" edge="1" parent="1" source="8hI16IPhnx6V41X8fl6s-4">
                    <mxGeometry relative="1" as="geometry">
                        <mxPoint x="310" y="300" as="targetPoint"/>
                    </mxGeometry>
                </mxCell>
                <mxCell id="8hI16IPhnx6V41X8fl6s-4" value="Files" style="whiteSpace=wrap;html=1;shape=mxgraph.basic.document;strokeWidth=1;fontSize=12;" vertex="1" parent="1">
                    <mxGeometry x="70" y="410" width="100" height="100" as="geometry"/>
                </mxCell>
                <mxCell id="8hI16IPhnx6V41X8fl6s-7" style="edgeStyle=none;html=1;entryX=-0.1;entryY=0.47;entryDx=0;entryDy=0;entryPerimeter=0;fontSize=12;" edge="1" parent="1" source="8hI16IPhnx6V41X8fl6s-8" target="8hI16IPhnx6V41X8fl6s-9">
                    <mxGeometry relative="1" as="geometry"/>
                </mxCell>
                <mxCell id="8hI16IPhnx6V41X8fl6s-8" value="" style="sketch=0;outlineConnect=0;fontColor=#232F3E;gradientColor=none;fillColor=#4D27AA;strokeColor=none;dashed=0;verticalLabelPosition=bottom;verticalAlign=top;align=center;html=1;fontSize=12;fontStyle=0;aspect=fixed;pointerEvents=1;shape=mxgraph.aws4.data_lake_resource_icon;strokeWidth=1;" vertex="1" parent="1">
                    <mxGeometry x="440" y="260" width="78" height="78" as="geometry"/>
                </mxCell>
                <mxCell id="8hI16IPhnx6V41X8fl6s-9" value="" style="html=1;verticalLabelPosition=bottom;align=center;labelBackgroundColor=#ffffff;verticalAlign=top;strokeWidth=2;strokeColor=#0080F0;shadow=0;dashed=0;shape=mxgraph.ios7.icons.data;fontSize=12;" vertex="1" parent="1">
                    <mxGeometry x="610" y="264.45" width="50" height="73.55" as="geometry"/>
                </mxCell>
                <mxCell id="8hI16IPhnx6V41X8fl6s-10" style="edgeStyle=none;html=1;fontSize=12;" edge="1" parent="1" source="8hI16IPhnx6V41X8fl6s-11" target="8hI16IPhnx6V41X8fl6s-8">
                    <mxGeometry relative="1" as="geometry"/>
                </mxCell>
                <mxCell id="8hI16IPhnx6V41X8fl6s-11" value="" style="sketch=0;points=[[0,0,0],[0.25,0,0],[0.5,0,0],[0.75,0,0],[1,0,0],[0,1,0],[0.25,1,0],[0.5,1,0],[0.75,1,0],[1,1,0],[0,0.25,0],[0,0.5,0],[0,0.75,0],[1,0.25,0],[1,0.5,0],[1,0.75,0]];outlineConnect=0;fontColor=#232F3E;gradientColor=#945DF2;gradientDirection=north;fillColor=#5A30B5;strokeColor=#ffffff;dashed=0;verticalLabelPosition=bottom;verticalAlign=top;align=center;html=1;fontSize=12;fontStyle=0;aspect=fixed;shape=mxgraph.aws4.resourceIcon;resIcon=mxgraph.aws4.kinesis_data_streams;strokeWidth=1;" vertex="1" parent="1">
                    <mxGeometry x="310" y="260" width="78" height="78" as="geometry"/>
                </mxCell>
                <mxCell id="8hI16IPhnx6V41X8fl6s-14" style="edgeStyle=none;html=1;entryX=0;entryY=0.5;entryDx=0;entryDy=0;entryPerimeter=0;fontSize=12;" edge="1" parent="1" source="8hI16IPhnx6V41X8fl6s-13" target="8hI16IPhnx6V41X8fl6s-11">
                    <mxGeometry relative="1" as="geometry"/>
                </mxCell>
                <mxCell id="8hI16IPhnx6V41X8fl6s-13" value="DB" style="shape=cylinder3;whiteSpace=wrap;html=1;boundedLbl=1;backgroundOutline=1;size=15;strokeWidth=1;fontSize=12;" vertex="1" parent="1">
                    <mxGeometry x="79" y="300" width="60" height="80" as="geometry"/>
                </mxCell>
            </root>
        </mxGraphModel>
    </diagram>
</mxfile>